<svg width="25" height="20" viewBox="0 0 25 20" fill="none" xmlns="http://www.w3.org/2000/svg">
<path fill-rule="evenodd" clip-rule="evenodd" d="M8.46447 13.4645C9.40215 12.5268 10.6739 12 12 12H20C21.3261 12 22.5979 12.5268 23.5355 13.4645C24.4732 14.4021 25 15.6739 25 17V19C25 19.5523 24.5523 20 24 20C23.4477 20 23 19.5523 23 19V17C23 16.2044 22.6839 15.4413 22.1213 14.8787C21.5587 14.3161 20.7956 14 20 14H12C11.2044 14 10.4413 14.3161 9.87868 14.8787C9.31607 15.4413 9 16.2044 9 17V19C9 19.5523 8.55228 20 8 20C7.44772 20 7 19.5523 7 19V17C7 15.6739 7.52678 14.4021 8.46447 13.4645Z" fill="white"/>
<path fill-rule="evenodd" clip-rule="evenodd" d="M16 2C14.3431 2 13 3.34315 13 5C13 6.65685 14.3431 8 16 8C17.6569 8 19 6.65685 19 5C19 3.34315 17.6569 2 16 2ZM11 5C11 2.23858 13.2386 0 16 0C18.7614 0 21 2.23858 21 5C21 7.76142 18.7614 10 16 10C13.2386 10 11 7.76142 11 5Z" fill="white"/>
<path fill-rule="evenodd" clip-rule="evenodd" d="M5.58334 5C5.58334 4.44772 5.13563 4 4.58334 4C4.03106 4 3.58334 4.44772 3.58334 5V7.58333H1C0.447715 7.58333 0 8.03104 0 8.58333C0 9.13561 0.447715 9.58333 1 9.58333H3.58334V12.1667C3.58334 12.719 4.03106 13.1667 4.58334 13.1667C5.13563 13.1667 5.58334 12.719 5.58334 12.1667V9.58333H8.16667C8.71896 9.58333 9.16667 9.13561 9.16667 8.58333C9.16667 8.03104 8.71896 7.58333 8.16667 7.58333H5.58334V5Z" fill="white"/>
</svg>
