<svg width="302" height="337" viewBox="0 0 302 337" fill="none" xmlns="http://www.w3.org/2000/svg">
<path d="M64.2251 206.315C80.4678 214.354 98.8802 218.892 118.371 218.892C183.785 218.892 237 167.76 237 104.917C237 59.2913 208.948 19.8372 168.546 1.64722L165.789 7.0668C204.105 24.2745 230.719 61.667 230.719 104.917C230.719 164.435 180.319 212.857 118.371 212.857C99.871 212.857 82.399 208.537 66.9893 200.892L64.2251 206.315Z" fill="#0090AF"/>
<path d="M147.296 31.4149L152.243 34.255L170.612 2.59953L165.527 0L147.296 31.4149Z" fill="#0090AF"/>
<path d="M66.9893 200.889L71.0332 205.009L88.5891 175.792L83.5141 172.976L66.9893 200.889Z" fill="#0090AF"/>
<path d="M114.96 277.264H124.381L124.381 215.981H114.96L114.96 277.264Z" fill="#0090AF"/>
<path d="M93.1755 251.368H146.166V244.579H93.1755V251.368Z" fill="#0090AF"/>
<path d="M197.495 135.423C186.761 161.979 164.251 180.323 138.348 186.895H138.345C138.311 186.916 138.278 186.932 138.241 186.952C137.458 187.33 136.551 187.527 135.658 187.534H135.655C130.966 188.566 126.18 189.214 121.336 189.458C109.154 190.076 96.6466 188.138 84.5889 183.314C75.161 179.541 66.7643 174.312 59.5565 167.987C32.7541 144.474 22.3555 105.859 36.4453 70.9926C39.3976 63.6918 43.2366 57.0126 47.791 51.0283C61.0478 33.6135 80.3569 22.0826 101.439 18.2468C117.021 15.4134 133.569 16.7833 149.351 23.0984C165.09 29.3967 177.957 39.7614 187.224 52.4918C195.923 64.4403 201.448 78.467 203.188 93.1654C204.837 107.055 203.111 121.536 197.495 135.423Z" fill="#6FE1FA"/>
<path d="M136.531 48.3352C135.608 49.9423 133.303 50.0927 131.513 49.5781C129.726 49.0636 128.01 48.0946 126.149 48.1614C123.892 48.2483 121.891 49.9757 121.128 52.0941C120.366 54.2092 120.712 56.6149 121.676 58.6431C122.74 60.8717 124.534 63.4779 123.13 65.5094C121.786 67.4607 118.616 66.8326 116.849 65.2521C115.079 63.6717 113.957 61.4197 111.996 60.0798C109.534 58.3958 106.202 58.5027 103.377 59.4784C100.556 60.454 98.0741 62.1915 95.4778 63.665C94.5877 64.1662 93.607 64.6574 92.596 64.5204C91.5817 64.3834 90.648 63.3242 91.0309 62.382C91.2895 61.7471 91.9948 61.4397 92.5591 61.0455C94.9941 59.328 94.8464 55.4087 92.9353 53.1299C91.0174 50.8511 87.9442 49.9089 84.9986 49.4578C84.9214 53.1032 79.2721 54.9676 79.6281 58.5963C79.8464 60.8684 82.3016 62.1113 84.3067 63.2173C87.8804 65.1887 91.0006 67.992 94.7993 69.4923C102.041 72.3524 111.331 70.3677 116.96 75.7238C119.073 77.7352 120.282 80.5119 121.054 83.3152C122.895 90.0045 122.267 97.763 117.716 103.016C112.466 109.077 102.699 113.584 102.199 113.514C96.0085 112.645 92.5826 110.817 90.4431 111.399C82.3856 113.591 85.0692 126.993 83.3193 132.676C78.4895 148.347 70.6872 156.019 69.7367 155.574C58.7907 150.489 51.8718 137.955 53.4201 126.037C54.2329 119.799 57.0979 113.891 57.3263 107.603C57.5245 102.097 55.6772 96.7339 55.0424 91.2608C53.8803 81.2002 57.0408 70.7219 63.5668 62.9533C64.9774 61.276 66.5627 59.6889 67.4528 57.6908C68.3496 55.696 68.3899 53.1199 66.8717 51.5395C65.0681 49.6616 61.9647 49.9423 59.5095 50.8344C57.0542 51.7232 54.6393 53.0865 52.0296 52.9194C50.4242 52.8158 48.9598 52.1008 47.7876 51.0249C61.0444 33.61 80.3536 22.0792 101.436 18.2434C105.023 21.0668 103.817 27.6993 106.525 31.1508C110.706 36.4869 119.986 33.7838 125.243 38.0774C126.25 38.896 127.056 39.9485 128.121 40.6903C129.884 41.9165 132.141 42.1805 134.056 43.1561C135.974 44.1351 137.593 46.4774 136.531 48.3352Z" fill="#0090AF"/>
<path d="M49.5207 106.123C49.7424 107.082 49.9641 108.041 50.1857 109C50.3369 109.661 50.4914 110.343 50.3772 111.011C50.1387 112.418 48.5635 113.444 47.173 113.1C45.7825 112.752 44.879 111.108 45.3358 109.755C45.6179 108.92 46.3367 108.158 46.1788 107.292C45.8463 105.478 42.1383 103.57 45.3156 102.658C47.6734 101.98 49.1109 104.202 49.5207 106.123Z" fill="#7C9AF2"/>
<path d="M121.336 189.458C109.154 190.076 96.6467 188.139 84.5889 183.314C75.161 179.541 66.7643 174.312 59.5565 167.987C62.3006 167.459 65.1252 167.272 67.5502 168.532C68.2925 168.916 68.971 169.431 69.5419 170.045C69.9349 170.47 70.2876 170.948 70.7679 171.272C71.275 171.612 71.8863 171.756 72.4774 171.91C78.822 173.56 84.6763 177.025 89.1668 181.777C91.5482 181.336 93.1603 178.703 95.5786 178.569C97.1169 178.486 98.4839 179.451 99.8811 180.096C102.729 181.419 105.981 181.476 109.118 181.646C112.255 181.82 115.546 182.188 118.115 183.995C119.573 185.021 121.293 187.367 121.336 189.458Z" fill="white"/>
<path d="M187.224 52.4951C195.923 64.4436 201.448 78.4704 203.188 93.1687C202.026 94.0174 200.834 94.826 199.678 95.6179C197.992 96.7707 196.293 98.0136 195.231 99.7544C194.311 101.268 193.935 103.056 193.031 104.579C190.22 109.341 183.032 110.523 180.97 115.652C179.103 120.303 182.508 125.259 183.294 130.2C184.027 134.795 182.283 139.703 178.817 142.817C177.071 144.388 174.951 145.504 173.171 147.034C164.633 154.378 165.738 169.213 156.66 175.886C152.868 178.676 147.88 179.501 144.112 182.321C142.147 183.798 140.541 185.793 138.342 186.892H138.338C138.305 186.912 138.271 186.929 138.234 186.949C137.451 187.327 136.545 187.524 135.651 187.53H135.648C133.965 187.54 132.343 186.852 131.738 185.338C130.952 183.364 132.269 181.245 133.337 179.411C136.572 173.858 137.928 167.452 139.148 161.151C140.125 156.079 140.998 150.626 138.866 145.921C138.08 144.184 136.911 142.637 136.128 140.899C134.899 138.163 134.691 134.935 135.816 132.152C136.944 129.372 139.457 127.126 142.419 126.562C143.564 126.344 144.784 126.358 145.821 125.833C149.197 124.129 147.921 118.933 149.731 115.626C151.484 112.431 155.793 111.663 159.427 112.094C163.062 112.528 166.679 113.785 170.296 113.21C173.907 112.632 177.454 109.127 176.244 105.689C174.663 101.185 166.783 100.917 166.152 96.1859C165.943 94.6222 166.679 92.9649 166.094 91.5014C165.624 90.3253 164.412 89.5936 163.817 88.4776C163.122 87.1678 163.361 85.5205 162.672 84.2074C161.506 81.9921 158.013 81.2771 157.728 78.7945C157.416 76.0513 161.103 74.9787 163.317 73.3114C166.296 71.0627 166.716 66.161 164.16 63.4446C162.296 61.4665 158.92 59.7357 159.794 57.1663C160.492 55.1013 163.327 54.9543 165.5 55.1949C169.42 55.6259 173.339 56.0569 177.255 56.4913C181.736 56.9858 183.224 56.1238 186.21 53.2536C186.569 52.9228 186.902 52.6722 187.224 52.4951Z" fill="#0090AF"/>
<path d="M48.8288 221.881C44.7715 247.007 41.4262 274.088 42.8738 288.346C44.0662 292.339 47.754 293.668 51.012 294.186L48.7717 296.616L42.4641 296.973L34.0472 293.675C34.0472 293.675 34.5342 292.021 34.9204 289.138C35.3671 285.786 33.8053 278.125 33.8053 278.125C33.8053 278.125 29.701 251.662 32.0353 245.721C32.697 244.034 33.1369 242.099 33.4056 240.001V239.997C34.0942 234.654 33.7079 228.226 33.2545 221.981C32.7641 215.195 32.1932 208.626 32.838 203.881C35.7802 182.23 35.8138 163.505 35.8138 163.505H52.3286C52.3286 163.505 57.0072 176.73 54.8274 188.07C52.9835 197.71 50.8205 209.561 48.8288 221.881Z" fill="#FFB27D"/>
<path d="M33.409 239.994C34.0976 234.651 33.7113 228.222 33.2579 221.978L45.45 217.073L48.8254 221.877C48.3116 222.509 39.2397 233.158 33.409 239.994Z" fill="#F3A36C"/>
<path d="M80.8574 146.902C80.8574 146.902 82.7282 144.934 84.0683 143.962C85.4084 142.989 89.1668 142.014 89.5463 143.648C89.7143 144.373 88.3943 145.98 87.4438 146.555C86.4933 147.126 86.3455 147.854 85.3345 148.88C84.3235 149.906 81.8515 149.956 81.8515 149.956L80.8574 146.902Z" fill="#FFB27D"/>
<path d="M25.9057 130.647C25.1197 129.136 43.072 123.7 43.3575 138.599C43.3575 138.599 76.9882 137.777 60.9302 119.129C55.3716 112.674 55.9425 107.338 56.1105 102.366C56.2784 97.3973 52.6477 82.9528 40.2003 84.4097C40.2003 84.4097 36.939 83.0898 32.8716 85.1882C23.615 89.9662 2.89185 136.143 25.9057 130.647Z" fill="#233862"/>
<path d="M49.2285 148.375C49.2285 148.375 50.4174 150.721 52.5771 153.414C55.1801 156.655 59.1904 160.401 64.2251 161.139C66.6299 161.493 68.9843 160.979 71.144 160.023C71.1507 160.02 71.1507 160.02 71.1507 160.02C77.2669 157.32 81.865 151.109 81.865 151.109C82.9431 148.185 81.1798 146.2 81.1798 146.2C81.1798 146.2 68.8298 148.964 67.6543 148.379C66.4787 147.794 59.6169 128.131 57.9846 125.658C56.3489 123.189 50.7835 121.902 50.7835 121.902L49.2285 148.375Z" fill="#F77D48"/>
<path d="M52.5771 153.414C55.1801 156.655 59.1904 160.401 64.225 161.139C66.6299 161.493 68.9843 160.979 71.144 160.023C70.9055 160.053 64.796 160.805 62.361 156.472C59.8789 152.051 57.1919 145.031 53.5007 147.37C51.912 148.379 51.9826 150.888 52.5771 153.414Z" fill="#8EB3EF"/>
<path d="M14.4021 298.106C14.4021 298.106 10.3683 298.106 8.71247 298.106C7.05999 298.106 5.1724 296.846 4.71561 293.872C4.25547 290.902 0.856468 289.281 0.120913 286.849C-0.382892 285.178 0.809447 283.986 1.94133 283.07C2.45857 282.649 2.96237 282.285 3.28481 281.961C4.44356 280.798 5.53514 275.779 5.53514 275.779L11.5371 278.92C11.5371 278.92 8.70911 283.701 10.3414 289.081C11.1039 291.594 11.7857 293.912 13.4717 295.356C13.8681 295.697 14.3249 295.991 14.8488 296.225C17.4652 297.407 14.4021 298.106 14.4021 298.106Z" fill="#FFB27D"/>
<path d="M18.7617 138.602C18.7617 138.602 18.446 143.026 18.7617 148.339C18.9733 151.86 22.5503 156.575 23.0575 157.741C24.3304 160.665 25.768 161.143 25.768 161.143L36.8853 163.852L40.7948 164.805L53.1212 161.143C53.1212 161.143 58.737 145.552 56.4799 136.778C54.2262 128.004 50.7802 121.909 50.7802 121.909C50.7802 121.909 36.6098 118.237 25.6303 121.428L18.7617 138.602Z" fill="#F77D48"/>
<path d="M26.4733 162.94C26.4733 162.94 17.163 175.37 16.2931 183.77C15.4265 192.173 23.6587 215.429 21.8114 223.618C20.4377 229.696 13.1225 234.521 11.1005 249.847C10.3986 255.17 7.8661 265.819 5.52844 275.779L10.6874 280.818C22.9769 252.955 35.6829 235.416 36.4352 229.255C36.9659 224.895 39.458 201.96 49.5375 185.03C51.9558 180.963 48.0529 164.801 48.0529 164.801L26.4733 162.94Z" fill="#FFB27D"/>
<path d="M55.4118 191.552C54.0415 208.148 52.4327 222.128 52.4327 222.128C52.4327 222.128 44.6539 227.344 33.6474 228.005L33.6441 228.009C28.6161 228.313 22.913 227.664 16.9715 225.138C16.9715 225.138 14.7077 185.06 16.1486 178.674C17.5895 172.289 23.9744 163.505 23.9744 163.505L52.698 164.608C52.6946 164.611 56.7822 174.956 55.4118 191.552Z" fill="#2B478B"/>
<path d="M53.3126 160.588C53.3126 160.588 50.8608 162.516 45.994 162.613C40.1801 162.73 25.7713 161.139 25.7713 161.139C25.7713 161.139 25.1298 162.92 25.1566 164.798C25.1566 164.798 42.7562 169.215 52.9499 165.443C52.9499 165.443 54.2632 162.98 53.3126 160.588Z" fill="#ED7D2B"/>
<path d="M44.7346 164.611C44.7346 162.964 45.9235 161.624 47.3879 161.624C48.8523 161.624 50.0413 162.964 50.0413 164.611C50.0413 166.258 48.8523 167.598 47.3879 167.598C45.9235 167.598 44.7346 166.258 44.7346 164.611ZM45.6145 164.611C45.6145 165.777 46.4105 166.723 47.3879 166.723C48.3653 166.723 49.1613 165.774 49.1613 164.611C49.1613 163.445 48.3653 162.499 47.3879 162.499C46.4105 162.499 45.6145 163.445 45.6145 164.611Z" fill="white"/>
<path d="M6.82531 164.001L24.8561 179.62L46.3459 155.067L28.315 139.449L6.82531 164.001Z" fill="#0090AF"/>
<path d="M29.8353 164.063C29.8353 164.063 36.4419 164.831 36.4217 166.392C36.4016 167.952 34.776 171.156 33.9598 171.3C33.1436 171.444 28.5825 166.966 28.5825 166.966L29.8353 164.063Z" fill="#FFB27D"/>
<path d="M27.6253 121.074C27.6253 121.074 18.8054 121.689 15.4232 129.865C12.041 138.041 5.62921 151.767 5.62921 154.079C5.62921 156.388 9.21295 163.508 28.4549 167.601C28.4549 167.601 30.4467 165.52 30.3257 163.872C30.3257 163.872 18.3117 153.608 18.3453 152.408C18.4057 150.14 20.3135 147.143 30.8598 136.648C33.7315 133.791 27.6253 121.074 27.6253 121.074Z" fill="#F77D48"/>
<path d="M79.5844 170.324L106.014 93.0435C106.135 92.6926 106.296 92.3552 105.947 92.2282L105.624 92.1112C105.265 91.9809 105.158 92.2115 105.027 92.5723L76.8538 168.741C76.5885 169.469 76.931 170.278 77.6431 170.592L78.2947 170.879C78.8086 171.106 79.403 170.849 79.5844 170.324Z" fill="#F9DDBF"/>
<path d="M83.1749 146.524C83.1749 146.524 84.3739 146.484 85.6469 146.154C86.6478 145.893 87.9308 145.432 87.9308 145.432C88.6865 145.977 86.0633 147.47 85.395 148.489C84.8475 149.321 84.2295 149.562 82.7214 149.883L83.1749 146.524Z" fill="#FFB27D"/>
<path d="M40.9291 297.882C44.6035 297.427 43.6329 298.363 48.7851 298.393C53.934 298.423 55.6973 296.716 55.9392 295.984C56.1575 295.332 53.672 294.805 51.0119 294.183L50.9179 294.25C50.9179 294.25 47.6801 296.027 43.4347 295.637C39.9753 295.319 36.4352 293.912 34.0505 293.672C33.9027 294.45 33.7583 295.246 33.8255 296.051C34.0136 298.336 37.2547 298.336 40.9291 297.882Z" fill="#233862"/>
<path d="M14.4021 298.106C14.4021 298.106 10.3683 298.106 8.71247 298.106C7.05999 298.106 5.1724 296.846 4.71561 293.872C4.25547 290.902 0.856468 289.281 0.120913 286.849C-0.382892 285.178 0.809447 283.985 1.94133 283.07C2.56605 284.002 3.91624 286.331 5.23957 290.618C6.78793 295.63 10.4926 295.773 13.4684 295.356C13.8647 295.697 14.3215 295.991 14.8455 296.225C17.4652 297.407 14.4021 298.106 14.4021 298.106Z" fill="#233862"/>
<path d="M29.0124 120.649C30.7993 120.255 32.2805 119.005 32.8951 117.291C33.6374 115.226 34.2252 112.176 34.2117 108.353L34.7693 108.464L44.1535 110.311C44.1535 110.311 43.9385 113.248 43.9318 116.018C43.9318 116.042 43.9318 116.065 43.9318 116.088C43.9217 118.491 45.507 120.613 47.8279 121.281C49.0135 121.622 42.1752 130.576 41.3926 130.399C39.767 130.028 28.4448 120.773 29.0124 120.649Z" fill="#FFB27D"/>
<path d="M44.1569 110.308C44.1569 110.308 43.9419 113.245 43.9352 116.015C38.6822 115.868 35.9079 111.103 34.7693 108.46L44.1569 110.308Z" fill="#E8945B"/>
<path d="M45.9101 112.931C45.9101 112.931 33.4862 113.135 33.4762 105.436C33.4694 97.7381 31.8573 92.5791 39.7905 92.1214C47.7238 91.667 49.2688 94.6006 49.9002 97.1701C50.5283 99.7395 49.1412 112.677 45.9101 112.931Z" fill="#FFB27D"/>
<path d="M45.4499 91.9309C45.4499 91.9309 42.0476 100.962 36.8282 102.299C31.6087 103.636 29.3416 102.242 29.3416 102.242C29.3416 102.242 33.3452 99.078 34.1781 93.5548C34.1781 93.5548 42.8839 87.6307 45.4499 91.9309Z" fill="#233862"/>
<path d="M44.6069 92.6659C44.6069 92.6659 47.1293 93.6048 48.1671 95.4358C49.1814 97.2268 50.048 99.5958 49.8464 102.506C49.8464 102.506 52.4091 96.3681 49.5274 92.8931C46.4743 89.2077 44.6069 92.6659 44.6069 92.6659Z" fill="#233862"/>
<path d="M43.4818 108.36C43.4818 108.36 43.6967 109.266 45.9638 109.129C45.9638 109.129 47.8682 109.012 47.8111 108.016C47.8111 108.013 45.9638 107.304 43.4818 108.36Z" fill="white"/>
<path d="M41.396 130.396C41.396 130.396 32.9925 121.465 32.6768 117.816C32.6768 117.816 30.5339 118.407 28.0149 120.846C28.0149 120.846 30.0335 125.878 32.445 127.539C32.445 127.539 34.2016 127.292 35.582 126.727C35.582 126.727 34.7054 128.174 34.0102 129.039C34.0102 129.039 37.8156 131.188 41.396 130.396Z" fill="#FF9773"/>
<path d="M44.3416 118.157C44.3416 118.157 47.6566 124.184 41.396 130.396C41.396 130.396 45.3257 129.647 47.3443 126.894C47.3443 126.894 46.7195 125.414 46.1855 125.073C46.1855 125.073 47.3644 124.605 48.1067 125.29C48.1067 125.29 48.5567 122.059 48.1067 121.074C47.6566 120.088 45.3156 118.123 44.3416 118.157Z" fill="#FF9773"/>
<path d="M40.7712 130.396C40.7712 130.052 41.0534 129.774 41.396 129.774C41.7385 129.774 42.0207 130.055 42.0207 130.396C42.0207 130.74 41.7419 131.017 41.396 131.017C41.05 131.017 40.7712 130.74 40.7712 130.396Z" fill="#233862"/>
<path d="M44.1098 139.224C44.1098 138.879 44.3886 138.602 44.7345 138.602C45.0805 138.602 45.3592 138.879 45.3592 139.224C45.3592 139.568 45.0805 139.845 44.7345 139.845C44.3886 139.845 44.1098 139.568 44.1098 139.224Z" fill="#233862"/>
<path d="M44.7346 149.578C44.7346 149.234 45.0133 148.957 45.3593 148.957C45.7052 148.957 45.984 149.234 45.984 149.578C45.984 149.922 45.7052 150.2 45.3593 150.2C45.0133 150.2 44.7346 149.922 44.7346 149.578Z" fill="#233862"/>
<path d="M55.4118 191.552C54.0415 208.148 52.4327 222.128 52.4327 222.128C52.4327 222.128 44.6539 227.344 33.6475 228.005C33.8423 227.932 40.1029 225.533 44.7345 220.137C49.4401 214.657 55.4118 191.552 55.4118 191.552Z" fill="#233862"/>
<g clip-path="url(#clip0_145_1283)">
<path d="M223.541 189.229C230.228 183.778 247.746 191.314 250.355 194.83C252.921 198.289 258.131 234.795 254.298 237.321C250.462 239.846 238.596 244.958 233.659 240.448C228.724 235.937 223.541 189.229 223.541 189.229Z" fill="#007792"/>
<path d="M217.536 187.268C217.536 187.268 206.173 181.42 204.634 178.518C203.098 175.613 196.668 165.839 196.668 165.839C196.668 165.839 193.385 166.257 192.516 167.738C193.582 171.768 196.854 182.93 201.084 186.221C205.314 189.512 216.451 196.295 216.451 196.295L217.536 187.268Z" fill="#FFA283"/>
<path d="M215.289 256.141C215.289 256.141 214.904 264.076 214.904 268.916C214.904 273.755 222.306 292.723 221.633 295.433C220.959 298.143 228.607 297.775 228.607 297.775C228.607 297.775 229.129 283.047 227.159 276.078C225.189 269.111 227.159 254.788 227.159 254.788L215.289 256.141Z" fill="#FFA283"/>
<path d="M233.854 252.314C233.854 252.314 236.338 265.43 238.358 268.43C240.377 271.429 251.237 291.85 251.237 294.463C251.237 297.075 258.061 294.947 258.061 294.947C258.061 294.947 252.295 272.592 249.988 265.817C247.68 259.043 246.816 253.431 246.816 253.431L233.854 252.314Z" fill="#FFA283"/>
<path d="M215.192 239.3C214.485 243.615 211.613 269.832 211.613 269.832C211.613 269.832 221.413 272.863 227.276 271.508C227.276 271.508 227.112 250.431 228.457 250.431C228.472 250.431 228.484 250.431 228.498 250.431C230.421 250.441 232.11 251.792 232.574 253.673C233.696 258.215 236.778 271.915 236.778 271.915C236.778 271.915 249.164 270.178 251.855 268.92C251.855 268.92 247.717 239.265 243.2 234.716L237.78 229.818L218.027 227.255C218.027 227.253 215.693 236.247 215.192 239.3Z" fill="#13375B"/>
<path d="M210.003 303.755H231.003C231.003 303.755 231.436 296.109 229.994 294.657C228.552 293.205 228.936 294.841 226.534 295.764C224.131 296.688 222.567 294.458 221.47 293.354C220.371 292.249 221.152 296.883 216.54 296.883C211.926 296.883 208.945 301.624 210.003 303.755Z" fill="#0090AF"/>
<path d="M251.015 293.621C249.928 293.873 246.509 296.68 245.375 299.717C244.241 302.753 244.566 303.839 244.566 303.839C244.566 303.839 248.04 305.395 254.711 304.905C261.381 304.415 260.362 303.678 260.362 303.678C260.362 303.678 259.886 296.769 258.754 294.667C257.622 292.566 252.917 293.18 251.015 293.621Z" fill="#0090AF"/>
<path d="M254.657 200.79C254.657 200.79 266.636 205.217 269.798 204.383C272.96 203.547 284.452 201.661 284.452 201.661C284.452 201.661 286.377 204.37 285.886 206.019C282.225 207.968 271.865 213.129 266.593 212.237C261.322 211.346 248.814 207.722 248.814 207.722L254.657 200.79Z" fill="#FFA283"/>
<path d="M282.429 207.622C281.662 206.129 280.919 204.037 280.407 202.467C281.475 202.358 282.262 202.232 282.554 202.093C283.92 201.443 286.116 195.471 286.774 195.502C287.431 195.533 286.463 198.833 286.868 198.851C287.273 198.87 292.284 194.768 292.918 195.486C293.553 196.206 288.898 199.228 289.299 199.681C289.699 200.134 295.186 196.462 295.332 197.617C295.48 198.773 290.252 200.542 290.486 201.191C290.72 201.841 295.451 199.927 295.899 200.432C296.345 200.939 295.228 201.286 293.972 201.789C292.719 202.292 290.901 202.869 291.16 203.162C291.419 203.456 294.917 202.802 295.201 203.454C295.484 204.106 285.469 206.11 283.752 207.076C283.556 207.188 283.094 207.378 282.429 207.622Z" fill="#FFA283"/>
<path d="M263.912 202.604C263.912 202.604 262.468 209.56 257.942 212.721C252.905 211.426 247.53 209.238 246.924 211.077C246.38 212.729 246.733 226.264 246.033 233.545C240.617 236.702 215.151 234.619 215.135 231.282C215.122 228.734 221.267 203.193 217.729 200.411C216.443 199.4 205.512 193.498 205.512 193.498C205.512 193.498 210.072 184.467 212.877 181.666C212.877 181.666 218.354 184.549 223.586 186.67C230.45 189.45 236.231 190.219 240.05 192.004C253.511 198.293 255.66 199.435 263.912 202.604Z" fill="#F77D48"/>
<path d="M240.636 192.276C237.065 203.011 241.632 225.871 246.678 231.568C248.132 228.022 242.528 213.642 246.668 195.401C246.789 194.474 240.995 191.285 240.636 192.276Z" fill="#0090AF"/>
<path d="M230.688 189.082C225.53 194.725 217.791 215.696 217.627 216.738C217.853 198.413 224.803 189.733 225.957 187.605C226.719 187.088 230.781 188.529 230.688 189.082Z" fill="#0090AF"/>
<path d="M229.789 183.737V193.318C229.789 193.318 233.273 197.093 237.791 194.479L239.872 182.148L229.789 183.737Z" fill="#FFA283"/>
<path opacity="0.68" d="M229.789 188.565C232.667 189.295 236.225 188.064 239.286 185.621L239.872 182.15L229.789 183.739V188.565Z" fill="#FF7F4C"/>
<path d="M230.054 167.12C230.054 167.12 220.236 178.983 224.708 184.806C229.18 190.627 239.327 186.674 244.346 179.314C249.365 171.952 231.909 161.628 230.054 167.12Z" fill="#FFA283"/>
<path d="M239.656 171.404C239.656 171.404 243.255 171.513 241.838 174.918C240.42 178.323 237.856 179.477 239.22 180.851C240.159 181.794 239.623 183.726 239.198 184.839C238.978 185.414 238.943 186.047 239.124 186.637L239.148 186.715C239.545 188.027 240.798 188.881 242.156 188.763C245.46 188.476 250.986 186.802 250.678 178.762C250.678 178.762 253.431 173.598 250.69 169.643C247.95 165.688 245.877 166.019 245.877 166.019C245.877 166.019 244.895 162.285 241.84 161.406C238.785 160.527 229.84 157.342 228.858 162.285C227.872 167.229 232.237 170.853 239.656 171.404Z" fill="#011037"/>
<path d="M238.686 177.609C238.941 177.477 242.569 175.783 243.105 177.855C243.602 179.779 242.912 182.758 240.309 182.758C237.706 182.758 235.414 179.299 238.686 177.609Z" fill="#FFA283"/>
<path d="M231.003 303.755C231.003 303.755 231.093 302.166 231.054 300.302C228.591 301.374 215.079 301.202 210.169 301.101C209.742 302.094 209.657 303.062 210.003 303.755H231.003Z" fill="white"/>
<path d="M254.711 304.905C261.381 304.415 260.362 303.678 260.362 303.678C260.362 303.678 260.253 302.088 260.013 300.199H260.011C255.368 304.371 248.116 302.243 244.944 301C244.334 303.068 244.564 303.842 244.564 303.842C244.564 303.842 248.04 305.395 254.711 304.905Z" fill="white"/>
<path d="M193.695 171.383C195.303 170.934 197.333 170.063 198.825 169.377C198.179 168.512 197.738 167.846 197.641 167.536C197.187 166.085 200.051 160.405 199.581 159.942C199.11 159.476 197.364 162.432 197.074 162.145C196.785 161.859 196.374 155.37 195.418 155.389C194.463 155.408 195.42 160.902 194.818 160.912C194.217 160.924 193.167 154.375 192.226 155.05C191.283 155.726 193.543 160.79 192.91 161.059C192.277 161.328 190.459 156.529 189.787 156.543C189.115 156.558 189.621 157.621 190.106 158.889C190.59 160.157 191.404 161.893 191.014 161.901C190.625 161.909 188.723 158.881 188.055 159.112C187.388 159.344 192.729 168.109 193.191 170.034C193.247 170.254 193.421 170.725 193.695 171.383Z" fill="#FFA283"/>
</g>
<defs>
<clipPath id="clip0_145_1283">
<rect width="108" height="150" fill="white" transform="translate(188 155)"/>
</clipPath>
</defs>
</svg>
